<svg width="138" height="27" viewBox="0 0 138 27" fill="none" xmlns="http://www.w3.org/2000/svg">
<path d="M0.351807 5.80116L17.2043 0.51125C17.8108 0.320319 18.4959 0.634798 18.5015 1.11213L18.5689 5.39685L0.351807 11.0686V5.80116Z" fill="black"/>
<path d="M0.351804 13.3933L16.9179 8.19324C17.6592 7.95738 18.4959 8.34486 18.5015 8.92327L18.5633 12.989L0.346191 18.6608V13.3933H0.351804Z" fill="black"/>
<path d="M10.7014 21.2495L0.346191 18.0261V22.2828C0.346191 22.9005 0.857212 23.4564 1.6434 23.7035L10.7014 26.545V21.2495Z" fill="black"/>
<path d="M30.9233 19.0735H33.3099V14.8113H39.3579V12.6886H33.3099V10.1671H40.4249V7.92651H30.9233V19.0735Z" fill="black"/>
<path d="M51.9313 9.35313C51.4035 8.85334 50.7577 8.46024 50.022 8.19069C49.2864 7.91553 48.4609 7.78076 47.5792 7.78076C46.6976 7.78076 45.8664 7.92114 45.1308 8.19069C44.3952 8.46586 43.755 8.85334 43.2215 9.35313C42.6936 9.85292 42.2781 10.4594 41.9861 11.1558C41.694 11.8521 41.548 12.627 41.548 13.4638C41.548 14.3005 41.694 15.0867 41.9861 15.7887C42.2781 16.4906 42.6936 17.1083 43.2215 17.6137C43.7494 18.1191 44.3895 18.5178 45.1308 18.7986C45.8664 19.0794 46.6919 19.2198 47.5848 19.2198C48.4777 19.2198 49.2976 19.0794 50.0332 18.7986C50.7689 18.5178 51.4147 18.1191 51.9426 17.6137C52.4704 17.1083 52.886 16.4906 53.178 15.7887C53.47 15.0867 53.616 14.3061 53.616 13.4638C53.616 12.6214 53.47 11.8521 53.178 11.1558C52.886 10.4594 52.4704 9.85292 51.9426 9.35313H51.9369H51.9313ZM47.5736 16.9567C47.0457 16.9567 46.5572 16.8725 46.1135 16.7096C45.6699 16.5468 45.2824 16.3109 44.9567 16.0077C44.6366 15.7044 44.3783 15.3394 44.1986 14.9126C44.0189 14.4858 43.9234 14.0029 43.9234 13.4638C43.9234 12.9247 44.0133 12.4473 44.1986 12.0206C44.3783 11.5994 44.6366 11.24 44.9567 10.948C45.2824 10.656 45.6699 10.4257 46.1135 10.2741C46.5572 10.1169 47.0513 10.0383 47.5792 10.0383C48.1071 10.0383 48.5956 10.1169 49.0449 10.2741C49.4885 10.4257 49.876 10.656 50.1961 10.948C50.5162 11.24 50.7689 11.5994 50.9542 12.0206C51.1395 12.4417 51.2294 12.9247 51.2294 13.4638C51.2294 14.0029 51.1395 14.4858 50.9542 14.9126C50.7689 15.3394 50.5162 15.71 50.1905 16.0077C49.8704 16.3109 49.4829 16.5468 49.0393 16.7096C48.5956 16.8725 48.1015 16.9567 47.5792 16.9567H47.5736Z" fill="black"/>
<path d="M64.4542 14.9797C64.7574 14.7327 65.0101 14.4462 65.2067 14.1262C65.4088 13.8117 65.5548 13.4579 65.6503 13.0817C65.7458 12.7054 65.7907 12.3067 65.7907 11.8968C65.7907 11.2847 65.6952 10.7231 65.4987 10.2345C65.3021 9.74035 65.0045 9.31918 64.6058 8.97101C64.2127 8.62846 63.7073 8.37013 63.112 8.19043C62.5224 8.01635 61.8204 7.92651 61.0174 7.92651H55.632V19.0735H58.0187V15.9905H61.0118L62.9492 19.0735H65.8637L63.5725 15.5244C63.9038 15.3728 64.2015 15.1931 64.4598 14.9854L64.4542 14.9797ZM63.2973 11.8911C63.2973 12.1775 63.2524 12.4415 63.1626 12.6717C63.0727 12.902 62.9379 13.0929 62.7582 13.2501C62.5729 13.413 62.3427 13.5365 62.0675 13.6264C61.7867 13.7162 61.4498 13.7668 61.0736 13.7668H58.0187V10.1447H61.0736C61.8317 10.1447 62.3988 10.3019 62.7639 10.6052C63.1233 10.9084 63.2973 11.324 63.2973 11.8855V11.8911Z" fill="black"/>
<path d="M80.9641 7.92676L78.1114 15.0586L77.7464 16.2996L77.2691 15.0698L76.247 12.526L78.1619 7.92114H75.6855L75.079 9.73498L74.4276 7.92114H71.9511L73.866 12.526L72.8552 15.0305L72.4733 16.3053L71.9791 15.0193L69.1489 7.92676H66.5432L71.221 19.0738H73.4785L74.45 16.8275L75.0565 15.1316L75.663 16.8331L76.6176 19.0738H78.8807L83.553 7.92676H80.9473H80.9641Z" fill="black"/>
<path d="M105.909 14.9797C106.212 14.7327 106.465 14.4462 106.661 14.1262C106.863 13.8117 107.009 13.4579 107.105 13.0817C107.2 12.7054 107.245 12.3067 107.245 11.8968C107.245 11.2847 107.15 10.7231 106.953 10.2345C106.757 9.74035 106.459 9.31918 106.06 8.97101C105.667 8.62846 105.162 8.37013 104.567 8.19043C103.977 8.01635 103.275 7.92651 102.472 7.92651H97.0866V19.0735H99.4733V15.9905H102.466L104.404 19.0735H107.318L105.027 15.5244C105.358 15.3728 105.656 15.1931 105.914 14.9854L105.909 14.9797ZM104.752 11.8911C104.752 12.1775 104.707 12.4415 104.617 12.6717C104.527 12.902 104.393 13.0929 104.213 13.2501C104.028 13.413 103.797 13.5365 103.522 13.6264C103.241 13.7162 102.904 13.7668 102.528 13.7668H99.4733V10.1447H102.528C103.286 10.1447 103.853 10.3019 104.218 10.6052C104.578 10.9084 104.752 11.324 104.752 11.8855V11.8911Z" fill="black"/>
<path d="M118.331 9.40368C117.786 8.92635 117.089 8.5557 116.258 8.303C115.438 8.0503 114.456 7.92114 113.344 7.92114H109.424V19.0682H113.361C114.473 19.0738 115.455 18.9334 116.275 18.6526C117.101 18.3718 117.797 17.9787 118.342 17.479C118.886 16.9792 119.302 16.3727 119.566 15.6876C119.83 15.0025 119.965 14.25 119.965 13.4469C119.965 12.6046 119.83 11.8296 119.56 11.1501C119.291 10.465 118.875 9.87538 118.325 9.39806L118.331 9.40368ZM113.86 16.8556H111.811V10.1506H113.86C114.467 10.1506 115 10.2292 115.455 10.3864C115.899 10.538 116.281 10.7626 116.578 11.0434C116.87 11.3242 117.101 11.6724 117.247 12.0711C117.398 12.4754 117.471 12.9471 117.471 13.4526C117.471 13.958 117.393 14.4465 117.247 14.8677C117.101 15.2832 116.87 15.6426 116.578 15.9347C116.281 16.2267 115.905 16.4569 115.455 16.6197C115 16.7826 114.467 16.8612 113.866 16.8612L113.86 16.8556Z" fill="black"/>
<path d="M124.423 7.78076H122.026V18.9278H124.423V7.78076Z" fill="black"/>
<path d="M135.273 7.78076V11.2175L129.045 7.78076H126.771V18.9278H129.152V10.5436L135.267 13.8962V18.9278H137.654V7.78076H135.267H135.273Z" fill="black"/>
<path d="M88.3487 7.92651L83.3788 19.0735H85.9059L89.5729 10.7343L93.3522 19.0735H95.8736L90.7522 7.92651H88.3487Z" fill="black"/>
</svg>
