<svg width="10" height="10" viewBox="0 0 10 10" fill="none" xmlns="http://www.w3.org/2000/svg">
<path d="M9.08654 4.98327C9.08654 5.36187 8.77103 5.67738 8.41346 5.67738H5.38462V8.70622C5.38462 9.0638 5.06911 9.35827 4.71154 9.35827C4.33293 9.35827 4.03846 9.0638 4.03846 8.70622V5.67738H1.00962C0.63101 5.67738 0.336538 5.36187 0.336538 4.98327C0.336538 4.62569 0.63101 4.33122 1.00962 4.33122H4.03846V1.30238C4.03846 0.923772 4.33293 0.608267 4.71154 0.608267C5.06911 0.608267 5.38462 0.923772 5.38462 1.30238V4.33122H8.41346C8.77103 4.31019 9.08654 4.62569 9.08654 4.98327Z" fill="white"/>
</svg>
