<svg width="19" height="19" viewBox="0 0 19 19" fill="none" xmlns="http://www.w3.org/2000/svg">
<path d="M18.1484 16.4869C18.669 17.0422 18.669 17.9099 18.1484 18.4652C17.593 18.9859 16.7253 18.9859 16.17 18.4652L12.0398 14.3003C10.6168 15.2374 8.88138 15.7233 7.00715 15.4804C3.81403 15.0292 1.24565 12.4261 0.829157 9.26767C0.239123 4.5474 4.23053 0.556001 8.95079 1.14603C12.1092 1.56253 14.7123 4.13091 15.1635 7.32403C15.4065 9.19825 14.9205 10.9336 13.9834 12.322L18.1484 16.4869ZM3.53637 8.29585C3.53637 10.7601 5.51472 12.7385 7.97897 12.7385C10.4085 12.7385 12.4216 10.7601 12.4216 8.29585C12.4216 5.8663 10.4085 3.85325 7.97897 3.85325C5.51472 3.85325 3.53637 5.8663 3.53637 8.29585Z" fill="white"/>
</svg>
